<svg viewBox="0 0 1024 1024" version="1.1" xmlns="http://www.w3.org/2000/svg"><path d="M170.666667 128.426667h682.666666c47.146667 0 85.333333 38.186667 85.333334 85.333333v469.333333c0 47.146667-38.186667 85.333333-85.333334 85.333334H170.666667c-47.146667 0-85.333333-38.186667-85.333334-85.333334v-469.333333c0-47.146667 38.186667-85.333333 85.333334-85.333333z m128.32 368.96c-9.813333 6.506667-12.48 19.733333-5.866667 29.546666 6.506667 9.813333 19.733333 12.48 29.546667 5.866667l128-85.333333c12.693333-8.426667 12.693333-27.093333 0-35.52l-128-85.333334c-9.813333-6.506667-23.04-3.84-29.546667 5.866667-6.506667 9.813333-3.84 23.04 5.866667 29.546667l101.333333 67.626666-101.333333 67.733334z m260.906666 39.04h170.666667c11.733333 0 21.333333-9.6 21.333333-21.333334s-9.6-21.333333-21.333333-21.333333h-170.666667c-11.733333 0-21.333333 9.6-21.333333 21.333333s9.6 21.333333 21.333333 21.333334zM256 895.573333c-11.733333 0-21.333333-9.6-21.333333-21.333333s9.6-21.333333 21.333333-21.333333h512c11.733333 0 21.333333 9.6 21.333333 21.333333s-9.6 21.333333-21.333333 21.333333H256z"></path></svg>
