<svg class="icon" viewBox="0 0 1024 1024" version="1.1" xmlns="http://www.w3.org/2000/svg"><path d="M512 512m-512 0a512 512 0 1 0 1024 0 512 512 0 1 0-1024 0Z" fill="#2BCF7D"></path><path d="M725.938 293C771.29 293 794 315.626 794 360.937V632.5c0 45.312-20.135 66.68-65.553 66.68H518.43l-130.163 87.985c-3.764 2.577-8.154 3.836-12.546 3.836-3.7 0-7.403-0.88-10.727-2.704a22.585 22.585 0 0 1-11.982-19.922l8.092-69.131h-65.55C250.89 699.243 230 677.81 230 632.56V360.937C230 315.626 252.332 293 298.123 293zM503.83 377h-52.662L362 593h53.63l21-49.871h81.74l21 49.871H593l-89.17-216zM662 377h-45v216h45V377z m-183.622 51.805l31.18 76.39h-62.36l31.18-76.39z" fill="#FFFFFF"></path></svg>