<svg
        class="p-[10px]"
        viewBox="0 0 1024 1024"
        version="1.1"
        xmlns="http://www.w3.org/2000/svg"
>
    <path
            d="M47.147947 768.853333A507.733333 507.733333 0 0 1 0.00128 554.026667q0-29.781333 3.328-58.709334a512 512 0 0 1 9.856-57.173333A512 512 0 0 1 171.734613 171.52a512 512 0 0 1 232.96-118.229333 512 512 0 0 1 146.261334-9.813334c61.952 4.778667 120.533333 20.352 173.952 44.8a512 512 0 0 1 118.613333 75.690667 512.853333 512.853333 0 0 1 172.928 301.994667A512 512 0 0 1 1024.00128 554.026667q0 19.370667-1.536 38.997333a512 512 0 0 1-31.061333 141.013333 512 512 0 0 1-101.546667 165.333334c-56.746667 57.898667-128.853333 83.712-189.013333 82.602666a187.733333 187.733333 0 0 1-116.224-43.690666c-42.24-36.394667-59.349333-78.08-65.28-124.544a213.333333 213.333333 0 0 1 5.461333-64.768c4.48-16.213333 15.786667-47.616 32.426667-61.312-19.413333-8.405333-44.373333-26.624-52.309334-35.370667-1.92-2.133333-1.706667-5.546667 0-7.808a6.613333 6.613333 0 0 1 7.552-2.261333c16.725333 5.717333 37.077333 11.392 58.538667 14.933333 28.16 4.736 63.317333 10.666667 98.858667 12.458667 86.613333 4.266667 177.194667-34.688 205.312-112.085334s17.194667-153.984-83.626667-199.893333-147.370667-100.522667-228.821333-133.461333c-53.205333-21.546667-112.469333-8.746667-173.226667 24.832-163.754667 90.496-310.485333 376.405333-242.773333 641.365333a8.149333 8.149333 0 0 1-13.44 8.106667 512 512 0 0 1-53.333334-69.717334 512 512 0 0 1-32.810666-59.904M493.654613 259.712c27.690667-2.176 51.797333 21.376 55.893334 52.736 5.546667 41.770667-9.728 84.906667-60.16 85.888-43.093333 0.853333-56.106667-42.538667-53.248-68.864 2.816-26.282667 24.490667-67.2 57.6-69.76"
    ></path>
</svg>