<svg viewBox="0 0 1024 1024" version="1.1" xmlns="http://www.w3.org/2000/svg"><path d="M283.875556 357.944889l3.868444-1.536zM96.711111 682.666667h48.810667a2.730667 2.730667 0 0 0 0.512 0 122.652444 122.652444 0 0 0 124.245333-90.112c13.255111-39.822222 24.120889-73.329778 33.678222-101.489778l0.341334-1.024a740.181333 740.181333 0 0 1 68.266666-77.824h0.455111c32.824889 94.321778 45.511111 262.656 141.425778 262.656 3.868444 0 7.907556 0 11.832889-0.284445-3.925333 0.398222-7.68 0.853333-11.377778 0.853334h75.946667a80.440889 80.440889 0 0 1-15.416889-1.706667 78.791111 78.791111 0 0 1-9.102222-2.446222 77.141333 77.141333 0 0 0 9.102222 2.218667 80.611556 80.611556 0 0 0 15.416889 1.365333 123.904 123.904 0 0 0 36.238222-4.152889 122.709333 122.709333 0 0 1-36.238222 4.664889h104.618667a33.792 33.792 0 0 1-10.183111-1.592889 36.352 36.352 0 0 0 10.012444 1.080889c73.955556 0 148.650667-125.155556 272.099556-332.629333h-48.298667v1.308444H910.222222c-45.511111 76.003556-77.368889 140.970667-104.334222 192.853333 26.908444-51.939556 58.823111-116.849778 104.334222-192.853333h-73.955555c-2.446222 0-4.835556-0.341333-7.224889 0A120.888889 120.888889 0 0 0 707.015111 432.355556c-29.411556 88.234667-47.104 145.578667-64.170667 182.044444a311.978667 311.978667 0 0 1-24.064 19.854222q-6.257778 4.664889-12.572444 8.874667a132.266667 132.266667 0 0 0 10.922667 11.093333 83.171556 83.171556 0 0 0 18.545777 13.027556 83.911111 83.911111 0 0 1-19.000888-13.027556 137.159111 137.159111 0 0 1-10.922667-11.093333c4.209778-2.787556 8.362667-5.688889 12.572444-8.874667-23.096889-48.071111-36.465778-129.706667-61.326222-193.422222 24.860444 63.544889 38.286222 145.237333 61.326222 193.422222q12.003556-8.988444 24.064-19.854222C609.052444 520.590222 597.333333 349.866667 500.622222 349.866667a122.88 122.88 0 0 0-20.536889 1.763555 119.921778 119.921778 0 0 1 20.536889-1.820444l-38.058666-0.455111c6.030222 0 11.719111 1.592889 17.066666 1.592889-5.688889 0-11.377778-1.592889-17.066666-1.592889h-1.592889 1.592889H307.2C223.857778 348.956444 108.999111 495.502222 57.287111 682.666667H96.711111z m728.689778-332.856889a110.535111 110.535111 0 0 0-56.888889 36.977778 110.421333 110.421333 0 0 1 56.888889-36.977778z m-116.792889 314.766222l-0.682667 0.341333-1.024 0.512 1.820445-0.853333z m-10.126222 4.209778a1.422222 1.422222 0 0 1 0.512 0h-0.455111l-1.024 0.341333z m-1.194667 0.455111z m-7.68 2.446222l1.649778-0.455111h0.853333l0.910222-0.341333 0.967112-0.284445 0.796444-0.284444 1.991111-0.625778-1.934222 0.625778H694.044444l-0.967111 0.284444-0.967111 0.341334h-0.853333l-1.649778 0.455111zM287.744 356.636444a14.449778 14.449778 0 0 0-4.835556 1.706667l0.967112-0.341333-3.868445 1.649778-2.048 0.967111z m3.925333-1.877333z m11.036445-3.128889a3.356444 3.356444 0 0 1-0.568889 0.568889l-4.039111 1.024h-0.455111l-1.137778 0.341333a10.695111 10.695111 0 0 1 1.137778-0.398222 4.209778 4.209778 0 0 0 0.455111 0l4.096-1.024s0.341333-0.512 0.568889-0.512a6.144 6.144 0 0 1 1.137777-0.625778c-0.398222 0-0.796444 0.625778-1.137777 0.682667z m1.763555 0l-0.568889 0.284445a2.446222 2.446222 0 0 1 0.568889-0.398223 4.494222 4.494222 0 0 1 1.194667-0.398222 8.590222 8.590222 0 0 0-1.137778 0.341334z m14.961778-0.625778a13.482667 13.482667 0 0 0-2.161778 0 17.806222 17.806222 0 0 1 2.161778 0z m1.934222-0.910222c-1.763556 0-3.527111 0.341333-5.347555 0.455111a4.266667 4.266667 0 0 1 0.739555 0.341334c-0.455111 0-0.910222-0.341333-1.365333-0.341334h0.625778-3.697778a4.608 4.608 0 0 1-1.080889 0 1.308444 1.308444 0 0 0-0.625778 0h-1.137777a5.688889 5.688889 0 0 0 1.137777 0h0.625778a7.338667 7.338667 0 0 0 1.080889 0 1.308444 1.308444 0 0 0 0.625778 0h2.218666-0.056888 6.200888z m4.892445 2.048a50.062222 50.062222 0 0 0-4.209778-0.853333h-0.341333 0.341333c1.422222 0 2.844444 0.512 4.209778 0.853333z m30.151111 22.755556a67.356444 67.356444 0 0 0-14.392889-17.066667 69.006222 69.006222 0 0 1 14.222222 17.066667z m6.769778 11.946666z m77.312-35.271111a125.155556 125.155556 0 0 1 16.611555-1.877333 126.065778 126.065778 0 0 0-16.611555 1.877333z m-54.215111 49.550223z m70.997333-43.406223a176.355556 176.355556 0 0 0-26.282667 11.832889 176.355556 176.355556 0 0 1 26.282667-11.832889 143.303111 143.303111 0 0 1 17.863111-5.006222 140.401778 140.401778 0 0 0-17.863111 4.949333z m22.755555-5.688889z m66.673778 319.032889c3.584-0.910222 7.224889-1.991111 10.865778-3.185777-3.925333 0.967111-7.509333 2.048-11.093333 2.958222z m93.411556-5.688889l-0.625778 0.341334 0.682667-0.341334z m19.285333 9.329778a68.835556 68.835556 0 0 1-23.779555-7.054222 68.835556 68.835556 0 0 0 23.779555 7.054222l3.868445 0.341334z m-0.625778-24.576a65.536 65.536 0 0 0 16.213334 18.488889 62.577778 62.577778 0 0 1-16.270223-18.318222z m13.710223 24.917334a1.536 1.536 0 0 1-0.682667 0 1.479111 1.479111 0 0 0 0.682667 0 6.030222 6.030222 0 0 0 1.422222 0 6.087111 6.087111 0 0 1-1.649778-0.227556z m5.688888-0.625778h-3.640888 3.584z" fill="#26A2C1"></path></svg>