<svg xmlns="http://www.w3.org/2000/svg" viewBox="0 0 1024 1024">
    <path d="M511.54286 14.05714C228.91429 13.94286 0 242.74286 0 525.14286 0 748.45714 143.2 938.2857 342.62857 1008c26.85714 6.74286 22.74286-12.34286 22.74286-25.37143v-88.57143C210.28572 912.22857 204 809.6 193.6 792.45714c-21.02857-35.88571-70.74286-45.02857-55.88571-62.17143 35.31428-18.17143 71.31428 4.57143 113.02857 66.17143C280.91429 841.14286 339.77143 833.6 369.6 826.17143c6.51429-26.85714 20.45714-50.85714 39.65714-69.48572C248.57143 727.88571 181.6 629.82857 181.6 513.25714c0-56.57143 18.62857-108.57143 55.2-150.51428C213.48571 293.6 238.97143 234.4 242.4 225.6c66.4-5.94286 135.42857 47.54286 140.8 51.77143C420.91429 267.2 464 261.82857 512.22857 261.82857c48.45714 0 91.65714 5.6 129.71429 15.88572 12.91428-9.82858 76.91428-55.77143 138.62857-50.17143 3.31429 8.8 28.22857 66.62857 6.28571 134.85714 37.02857 42.05714 55.88572 94.51429 55.88572 151.2 0 116.8-67.42857 214.97143-228.57143 243.31429a145.7143 145.7143 0 0 1 43.54286 104V989.4857c.91428 10.28572 0 20.45715 17.14285 20.45715 202.4-68.22857 348.11429-259.42857 348.11429-484.68572 0-282.51428-229.02857-511.2-511.42857-511.2"/>
</svg>
