<svg viewBox="0 0 1024 1024" version="1.1" xmlns="http://www.w3.org/2000/svg"><path fill="#000000" d="M479.002898 0.723415c-23.776194 1.935279-46.032054 5.529412-67.596545 10.644187-11.335248 2.62634-21.426279 5.252987-22.394072 5.805837-0.829274 0.414637 8.985333 0.691061 21.979128 0.414636 34.558594-0.691061 59.440793 4.423407 87.778913 17.832146 56.537722 26.817478 106.716758 91.649471 134.916666 174.036879 7.464691 21.840916 16.173292 54.602443 16.173292 60.961435 0 5.529412-0.552849 7.050054-4.285194 10.091031-2.349916 1.935279-4.838351 3.594133-5.529412 3.594133-1.797067 0-1.520642 7.464691 0.552849 9.952818 0.829274 1.244217 4.146982 2.903072 7.188266 3.870558 31.655522 9.814606 57.367302 45.202473 66.905484 92.340532 6.911842 33.729013 6.496898 65.937691-1.244218 96.487515-9.676394 38.429151-30.411612 68.840763-55.017386 81.005285-11.611673 5.805836-27.093903 6.773629-39.811581 2.764552-32.070466-10.091031-57.090878-47.690908-66.352328-99.805223-3.179496-17.693934-3.179496-52.805376 0-70.084673 6.911842-38.290939 20.735218-67.043696 42.161496-88.193551 7.602903-7.326478 8.432176-8.708908 8.432177-13.823376 0-6.082261-1.797067-8.985333-5.667624-8.985333-1.38243 0-4.146982-1.38243-6.082261-3.179496-3.041284-2.62634-4.423407-6.082261-7.879327-21.702703-14.652957-65.937691-38.014514-116.531364-70.776042-153.578393-58.887944-66.767272-140.860715-88.469975-221.31315-58.611212-44.926049 16.588236-110.725528 60.270067-145.145909 96.21109-50.455461 52.805376-82.249502 128.972617-82.249502 197.536648 0 40.917279 9.676394 68.425819 32.34689 92.340533 19.214576 20.320581 39.811581 31.240885 71.743528 38.152727 3.317709 0.829274 3.732345 1.520642 3.732345 6.358685 0 7.879327-9.123545 105.057903-13.961588 148.60183-10.091031 92.340533-15.205806 113.07575-32.070466 131.460745-9.538182 10.505667-17.832146 14.376225-30.826248 14.376225-11.058824 0-19.491-3.455921-27.923177-11.473461-17.832146-17.002872-22.808709-53.911381-10.505667-78.793581 3.317709-6.773629 2.764552-8.155752-1.797067-4.00877-10.644187 9.399969-21.840916 30.549824-27.646752 52.114315-3.317709 12.440946-3.732345 16.173292-3.732345 38.014515 0 22.394072 0.276425 25.020412 3.870557 36.632084 6.63511 21.840916 18.799939 40.502642 35.249655 54.049594 11.197036 9.399969 32.485103 20.043849 47.690909 24.052619l11.335248 3.041284 1.520642 10.229243c4.561619 31.932254 31.51731 51.285041 66.767271 48.243758 26.402842-2.349916 47.137752-15.48223 59.164369-37.461359 4.146982-7.602903 4.285194-7.879327 4.423407-3.870557 0 6.082261-5.805836 28.199908-10.920612 41.470435-10.229243 26.402842-30.688036 52.252527-53.082107 66.905484l-9.39997 6.220473 212.327818 0.829274 6.911841-8.01754c11.888097-13.823376 25.849686-27.923177 33.176164-33.452588 13.546951-10.505667 107.269914-64.970205 143.763786-83.769837l20.735218-10.644187-9.676394 8.84712c-14.514744 13.132315-22.394072 21.564491-44.649624 48.105545-11.058824 13.270527-27.370328 31.932254-36.217448 41.608648-8.708908 9.538182-19.905637 21.702703-24.743988 27.232115l-8.708908 9.952818h80.314223l6.911842-14.0998c4.285194-9.123545 10.644187-18.938151 17.279297-27.370328 15.896867-19.767425 50.593673-55.432023 63.449563-65.108417 23.085133-17.417509 46.308479-25.158624 75.614085-25.158624 46.99954 0 73.540594 15.758655 114.043236 67.458333 16.450023 21.011642 25.711473 38.429151 29.858455 56.261297l1.935279 8.017539h15.205806l-1.244218-22.394071c-1.797067-34.97323 1.520642-41.608647 26.679267-54.187806 39.535156-19.905637 64.970205-43.405714 81.281709-74.784812 13.132315-25.573261 17.555721-47.137752 16.588235-80.176011-0.691061-26.264629-3.317709-37.876302-12.85589-57.090877-5.252987-10.920611-8.432176-15.067594-19.629212-26.541054-7.602903-7.741115-16.726448-15.344018-21.149855-17.832146l-7.741115-4.285195-6.358685-23.776194c-3.594133-13.132315-8.985333-32.899739-12.02631-43.958563-13.546951-48.520182-25.296836-95.243297-35.941023-141.689988-12.440946-54.740655-14.791169-65.937691-20.735218-100.634497-10.920611-62.48177-17.832146-89.299249-34.420381-133.534236-16.173292-42.714346-25.573261-63.034926-40.640855-87.640395C737.915311 71.637669 652.624832 17.034919 551.161062 2.796906c-18.385302-2.62634-53.911381-3.594133-72.158164-2.073491z m-160.904564 258.774508c10.091031 34.282169 20.043849 57.090878 44.3732 100.219861 1.797067 3.179496 3.041284 6.082261 2.62634 6.358685-0.414637 0.414637-4.146982 0.967793-8.155752 1.106005l-7.602903 0.552849-5.114775-10.505667c-10.091031-20.735218-20.597005-52.252527-26.126417-78.931794-3.041284-14.929381-4.838351-28.752757-3.732345-28.752757 0.414637 0 2.211703 4.561619 3.732345 9.952818z m-86.396484 93.308019c8.01754 11.611673 24.8822 29.305606 31.655522 33.452588 3.041284 1.797067 5.3912 1.658854 23.914407-1.658854 11.197036-2.073491 21.011642-3.732345 21.702703-3.732345s-1.658854 3.041284-5.114775 6.63511c-3.317709 3.732345-7.188266 8.708908-8.432176 11.058823-2.211703 4.146982-1.797067 8.570389 0.691061 8.570389 0.829274 0 8.155752-4.699831 16.588235-10.367455 22.25586-15.205806 32.208678-19.491 52.114315-22.808709 5.805836-0.967793 6.082261-0.829274 11.749885 5.529412l5.805837 6.496898 15.896867-1.244218c26.541054-2.211703 67.320121 0.138212 97.731732 5.252988l12.717678 2.211703 0.967793 7.879327c1.520642 11.749885-0.414637 71.605315-2.903072 92.75517-1.244217 10.229243-8.155752 50.731885-15.205806 89.990617-7.188266 39.258425-14.238013 80.037799-15.758654 90.543466-5.944049 40.640854-6.911842 75.061236-2.764553 96.21109l1.658854 8.01754-12.85589 12.026309c-7.050054 6.773629-13.270527 12.164522-13.546951 12.164522-0.414637 0-2.903072-4.00877-5.529412-8.985332-11.888097-21.979128-30.273399-46.170266-41.331916-54.187806-11.888097-8.708908-8.293964-8.570389-66.075903-1.106006-22.670496 3.041284-36.079236 4.146982-42.437921 3.732346-12.717678-1.106005-24.467563-6.496898-31.932254-14.791169-9.399969-10.505667-44.234988-74.508387-55.570235-102.016927-14.929381-36.35566-16.86466-53.358532-11.888098-99.943436 1.658854-14.929381 2.903072-27.50854 2.903072-27.923176 0-0.552849 0.967793-0.967793 2.073491-0.967793 1.106005 0 2.073491 0.829274 2.073491 1.935279 0 0.967793 2.62634 2.62634 6.082261 3.594133 10.229243 2.903072 16.311504-2.211703 25.711473-21.288067 7.879327-16.035079 6.911842-25.987898-3.594133-35.249655-11.197036-9.814606-23.914407-11.888097-34.420381-5.391199-2.211703 1.38243-4.699831 2.488128-5.252987 2.488127-1.797067 0-10.920611-21.011642-10.091031-23.085133 0.414637-1.106005 3.732345-3.179496 7.326478-4.83835 5.3912-2.349916 8.293964-2.764552 17.970358-2.073491 6.358685 0.276425 11.47346 0.138212 11.473461-0.414637 0-0.691061-2.349916-3.041284-5.114775-5.3912-2.764552-2.349916-4.699831-4.561619-4.146982-5.114775 1.106005-1.106005 32.485103-8.84712 35.802811-8.84712 1.38243 0 2.488128-0.414637 2.488128-0.829274s-3.455921-6.496898-7.602903-13.546951c-7.602903-12.579466-20.043849-40.917279-19.905637-45.064261 0-1.106005 1.38243 0.276425 3.041284 3.317708 1.658854 2.903072 6.773629 10.505667 11.335248 17.002873z m-23.223345 107.131702c0 11.749885 4.00877 22.946921 9.952818 27.508539l3.594133 2.903072-3.317708 2.62634c-10.782399 8.708908-20.735218-4.285194-20.87343-27.232115 0-9.123545 3.455921-15.758655 8.155752-15.758655 2.073491 0 2.488128 1.38243 2.488127 9.952819z" p-id="5342"></path><path d="M346.712879 400.358638c-12.302734 2.903072-25.987898 12.302734-30.688036 21.149854l-2.764552 4.976563 9.676394 9.676394 8.708908-8.155752c11.749885-11.335248 18.10857-13.270527 13.270527-4.00877-1.658854 2.903072-2.488128 7.602903-2.62634 12.855891 0 13.685164 9.123545 25.987898 20.597005 27.923176 16.588236 2.62634 28.614545-9.399969 28.752757-28.752757 0.138212-6.496898 0.552849-9.261757 1.658854-8.570389 2.073491 1.106005 19.214576 12.994102 20.597006 14.238013 2.073491 1.797067-4.146982 11.888097-10.920612 17.693934-15.896867 14.099801-38.843788 16.726448-66.49054 7.741115-9.538182-3.179496-11.749885-3.455921-13.546951-1.935279-1.935279 1.658854-0.829274 2.488128 9.261757 6.496898 16.311504 6.63511 20.87343 7.602903 34.420381 7.46469 24.052619 0 43.820351-10.782399 62.205346-33.729013 3.041284-3.732345 5.3912-7.602903 5.3912-8.708908 0-0.967793-2.073491-2.903072-4.423407-4.146982-2.488128-1.244217-9.538182-5.944049-15.48223-10.505667-24.467563-18.385302-48.658394-26.126417-67.596546-21.702704zM223.960735 593.195455c-3.179496 3.870558-2.073491 12.579466 2.62634 19.214576 2.764552 4.00877 3.732345 6.496898 2.903072 7.741115-1.935279 3.041284-1.38243 13.546951 0.829273 18.246783 7.326478 15.205806 27.093903 13.823376 55.017387-3.455921 19.352788-12.164522 19.905637-13.408739 7.188266-16.173292-5.114775-1.106005-11.749885-4.423407-20.320581-10.09103-18.938151-12.440946-30.688036-17.693934-39.258425-17.693934-4.838351 0-7.741115 0.691061-8.985332 2.211703zM612.537441 259.359711c-7.879327 1.520642-15.48223 3.732345-16.86466 4.976563-6.220473 5.667624-0.967793 19.491 6.911842 17.970358 2.073491-0.414637 10.505667-1.797067 18.661726-3.041284 17.279297-2.903072 21.702703-5.3912 21.702704-12.302734 0-2.349916-0.967793-5.805836-2.211704-7.464691-2.62634-3.870558-8.01754-3.870558-28.199908-0.138212zM630.784224 425.102626c-3.317709 0.691061-9.952818 3.317709-14.514745 5.944048-6.773629 3.732345-8.570389 5.3912-8.570388 7.879328 0 2.62634 1.244217 3.870558 5.252987 5.391199 4.561619 1.658854 7.188266 1.658854 19.214576 0.138212 11.058824-1.520642 15.896867-1.520642 23.499769-0.276424 12.717678 2.211703 17.832146 2.073491 21.564492-0.552849 4.00877-2.764552 3.870558-4.838351-0.829274-9.261757-8.432176-8.01754-30.411612-12.440946-45.617417-9.261757z"></path></svg>