<svg viewBox="0 0 1201 1024" version="1.1" xmlns="http://www.w3.org/2000/svg"><path d="M982.222769 854.4c0 17.92 0 35.84-11.953231 47.793231-5.976615 5.976615-17.92 29.873231-47.803076 29.873231H283.175385c-29.873231 0-41.816615-17.92-47.793231-29.873231-11.953231-17.92-11.953231-35.84-11.953231-47.793231l5.976615-5.976615 262.892308-298.742154c17.92-23.896615 59.746462-29.873231 83.643077-5.976616l406.291692 310.695385z" p-id="4827"></path><path d="M151.729231 549.681231c0 113.526154-77.686154 221.065846-83.652923 221.065846-5.976615 11.953231-17.92 11.953231-29.873231 11.953231-5.976615 0-17.92 0-23.896615-5.976616-17.92-11.953231-17.92-35.849846-5.976616-53.769846 0 0 65.723077-89.629538 65.723077-173.272615 0-89.619692-65.723077-173.272615-65.723077-173.272616-11.953231-17.92-11.953231-41.816615 5.976616-53.769846 17.92-17.92 41.816615-11.953231 53.769846 5.976616 5.976615 0 83.643077 107.539692 83.643077 221.065846z m1039.606154 173.272615c11.953231 17.92 11.953231 41.816615-5.976616 53.76-5.966769 5.986462-17.92 5.986462-23.896615 5.986462-11.953231 0-23.896615-5.976615-29.873231-11.953231-5.976615-5.976615-83.643077-107.549538-83.643077-221.065846 0-113.526154 77.666462-221.065846 83.643077-221.065846 11.953231-17.92 35.84-17.92 53.769846-5.976616 17.92 11.953231 17.92 35.84 5.976616 53.769846 0 0-65.723077 83.652923-65.723077 173.272616 0 89.619692 65.723077 173.272615 65.723077 173.272615z" p-id="4828"></path><path d="M1053.912615 53.769846C1030.016 17.929846 988.189538 0 946.372923 0h-693.070769c-41.826462 0-83.652923 17.92-107.549539 53.769846-17.92 23.906462-29.883077 53.779692-29.883077 77.676308 0 17.92 0 29.873231 5.976616 47.793231 59.746462 173.272615 95.606154 310.695385 95.606154 394.338461 0 65.723077-23.906462 149.366154-65.732923 233.019077-23.896615 41.826462-17.92 101.572923 11.95323 143.399385 23.896615 41.816615 65.723077 65.723077 113.526154 65.723077h639.300923c47.793231 0 89.619692-23.906462 113.526154-65.723077 29.863385-47.803077 29.863385-101.572923 5.966769-149.366154-47.803077-83.652923-71.699692-161.329231-71.699692-221.075692 0-83.643077 35.849846-227.042462 95.606154-394.338462 29.863385-47.793231 23.886769-95.596308-5.986462-131.446154z m-71.689846 800.630154c0 17.92 0 35.84-11.953231 47.793231-5.976615 5.976615-17.92 29.873231-47.803076 29.873231H283.175385c-29.873231 0-41.816615-17.92-47.793231-29.873231-11.953231-17.92-11.953231-35.84-11.953231-47.793231l5.976615-5.976615 262.892308-298.742154c17.92-23.896615 59.746462-29.873231 83.643077-5.976616l406.291692 310.695385z m17.92-705.033846c-47.793231 125.469538-101.572923 304.718769-101.572923 424.211692 0 41.826462 5.976615 89.619692 23.896616 137.422769l-298.732308-227.042461c-59.746462-41.826462-137.422769-35.84-185.225846 17.92L295.118769 663.197538c5.976615-29.873231 5.976615-59.746462 5.976616-89.619692 0-59.746462-11.953231-131.446154-35.849847-209.112615-17.92-71.699692-41.826462-149.366154-65.723076-215.099077-5.976615-11.943385-5.976615-35.84 5.976615-47.793231 11.943385-11.953231 23.896615-23.896615 41.816615-23.896615h699.057231c17.92 0 29.873231 5.966769 41.816615 23.896615 11.953231 11.943385 17.92 35.84 11.953231 47.793231z" p-id="4829"></path><path d="M749.193846 173.272615c-77.666462 0-137.412923 59.746462-137.412923 137.412923 0 77.676308 59.746462 137.422769 137.422769 137.42277 77.666462 0 137.422769-59.746462 137.42277-137.42277 0-71.689846-59.756308-137.412923-137.42277-137.412923z m0 203.136c-35.84 0-59.736615-29.873231-59.736615-59.746461s29.873231-59.746462 59.746461-59.746462 59.746462 29.873231 59.746462 59.746462-23.896615 59.746462-59.746462 59.746461z"></path></svg>