<svg class="icon" viewBox="0 0 1024 1024" version="1.1" xmlns="http://www.w3.org/2000/svg">
  <path
    d="M854.641778 329.386667l-224.028445-224.028445a32.085333 32.085333 0 0 0-22.641777-9.386666h-384a64 64 0 0 0-63.943112 64v288.028444a32.028444 32.028444 0 1 0 63.943112 0V159.971556h352.028444v192.056888a32.028444 32.028444 0 0 0 32.028444 31.971556h191.943112v512a31.971556 31.971556 0 1 0 64.056888 0V351.971556a31.857778 31.857778 0 0 0-9.386666-22.584889zM640 205.255111l114.744889 114.744889H640V205.255111z m-64 370.744889H512a32.028444 32.028444 0 0 0-32.028444 32.028444v223.971556a31.971556 31.971556 0 0 0 32.028444 32.028444h64a143.985778 143.985778 0 0 0 0-288.028444z m0 224.028444h-32.028444V640h32.028444a80.042667 80.042667 0 0 1 0 160.028444z m-160.028444-192.056888v224.028444a31.971556 31.971556 0 1 1-64 0v-122.481778l-53.76 76.8a31.971556 31.971556 0 0 1-52.394667 0l-53.816889-76.8v122.481778a31.971556 31.971556 0 1 1-64 0v-224.028444a31.971556 31.971556 0 0 1 58.197333-18.318223l85.788445 122.538667 85.788444-122.538667a32.028444 32.028444 0 0 1 58.254222 18.318223z"
    ></path>
</svg>
