<svg viewBox="0 0 1024 1024" xmlns="http://www.w3.org/2000/svg">
    <path d="M669.504 944.64v26.069333h-260.906667V944.64h260.906667z m-128.554667-66.197333V904.533333H224.042667v-26.090666h316.906666z m419.093334-78.229334v26.090667H275.285333V800.213333h684.757334z m-174.698667-313.728c41.6 14.933333 73.877333 56.533333 83.157333 107.029334 16.682667 78.464 9.856 134.506667 41.6 191.146666l3.989334 6.784H521.002667c36.714667-59.370667 28.245333-116.330667 45.610666-197.930666 9.685333-50.090667 41.557333-91.690667 83.136-107.029334 29.866667-12.117333 101.290667-12.117333 135.594667 0zM485.248 723.349333v26.090667H42.666667v-26.090667h442.581333z m238.357333-120.533333c-33.088 0-60.138667 25.856-60.138666 57.344 0 31.509333 27.050667 57.386667 60.138666 57.386667s60.138667-25.877333 60.138667-57.386667c0-31.488-27.050667-57.344-60.16-57.344z m-399.616-194.154667c41.557333 14.933333 73.856 56.533333 83.136 107.029334 16.682667 78.464 9.856 134.506667 41.6 191.146666l4.010667 6.784H59.626667c36.736-59.370667 28.266667-116.330667 45.610666-197.930666 9.685333-50.090667 41.578667-91.690667 83.136-107.029334 29.866667-12.117333 101.312-12.117333 135.616 0z m399.616 201.024c29.056 0 52.864 22.613333 52.864 50.090667 0 27.456-23.808 50.069333-52.864 50.069333s-52.864-22.208-52.864-50.069333c0-27.477333 23.808-50.090667 52.864-50.090667z m-0.405333 18.176c-3.221333 0-6.464 1.216-9.28 2.005334-2.432 0.810667-4.842667 1.621333-7.253333 1.621333-6.869333 0-8.490667 7.68-9.706667 12.928a66.325333 66.325333 0 0 1-1.194667 4.437333c-0.789333 2.325333-2.666667 7.594667 22.250667 23.253334l0.213333 0.128-0.234666 4.096c-2.858667 2.154667-10.752 7.893333-18.282667 6.826666a14.933333 14.933333 0 0 1-9.322667-6.464l0.448-2.816 0.896-6.442666 0.448-2.773334 0.362667-1.6-7.168-1.792a161.216 161.216 0 0 0-2.453333 15.274667l-0.042667 0.512v1.429333l0.704 1.066667c3.946667 6.464 9.322667 10.048 15.424 10.773333 1.066667 0.362667 1.792 0.362667 2.858667 0.362667 9.770667 0 18.773333-6.506667 21.397333-8.874667 2.944 2.346667 12.010667 8.874667 21.610667 8.874667 1.066667 0 2.133333 0 2.496-0.362667 5.546667-0.917333 10.026667-3.690667 13.653333-8.32l1.770667-2.432 0.704-1.066666v-1.450667c0-0.170667-0.341333-3.072-0.832-6.421333l-0.64-4.096a89.450667 89.450667 0 0 0-0.661334-3.690667l-0.362666-1.578667-7.168 1.792c0.704 2.517333 1.792 9.685333 2.133333 13.653334-2.496 3.925333-5.717333 6.08-9.301333 6.442666-6.698667 0.96-13.653333-3.477333-17.152-5.973333l-1.130667-0.853333-0.213333-4.138667c23.936-15.36 23.36-20.864 22.592-23.04l-0.128-0.298667-0.384-1.322666c-0.277333-0.96-0.554667-2.026667-0.810667-3.114667-0.810667-5.248-2.837333-12.928-9.685333-12.928-2.432 0-4.842667-0.810667-7.253334-1.621333-2.837333-0.789333-6.08-2.005333-9.301333-2.005334z m0.405333 7.68c2.026667 0 4.437333 0.789333 6.869334 1.6 3.2 0.810667 6.037333 2.026667 9.685333 2.026667 1.194667 0 2.410667 4.437333 2.816 6.869333 0.405333 2.005333 0.810667 3.221333 1.216 4.842667-1.621333 2.837333-10.496 9.685333-20.586667 16.149333-9.28-6.058667-18.986667-13.312-20.586666-16.149333l1.216-4.842667c0.405333-2.026667 1.621333-6.869333 2.816-6.869333 3.626667 0 6.869333-1.216 9.685333-2.026667 2.432-0.810667 4.842667-1.621333 6.869333-1.621333z m165.141334-4.437333H981.333333v26.346667l-89.173333-0.021334-3.413333-26.325333zM633.6 582.613333c-17.344 0-31.082667 14.144-31.082667 31.509334 0 17.365333 14.144 31.509333 31.082667 31.509333 17.365333 0 31.082667-14.549333 31.082667-31.509333 0-17.365333-13.717333-31.509333-31.082667-31.509334z m176.362667 0c-17.344 0-31.061333 14.144-31.061334 31.509334 0 17.365333 14.122667 31.509333 31.061334 31.509333 17.365333 0 31.082667-14.549333 31.082666-31.509333 0-17.365333-13.717333-31.509333-31.082666-31.509334zM262.229333 525.013333c-33.088 0-60.138667 25.834667-60.138666 57.344s27.050667 57.365333 60.16 57.365334c33.066667 0 60.117333-25.856 60.117333-57.365334s-27.029333-57.344-60.138667-57.344z m547.733334 64.490667c13.333333 0 23.829333 10.901333 23.829333 24.234667 0 13.333333-10.901333 24.234667-23.829333 24.234666a23.957333 23.957333 0 0 1-23.808-24.234666c0-3.114667 0.597333-6.08 1.664-8.832a13.525333 13.525333 0 0 0 13.269333 14.890666 13.525333 13.525333 0 0 0 13.333333-13.738666 13.525333 13.525333 0 0 0-16.064-13.44c3.477333-1.984 7.445333-3.114667 11.605334-3.114667z m-176.362667 0c13.312 0 23.808 10.901333 23.808 24.234667 0 13.333333-10.88 24.234667-23.808 24.234666a23.957333 23.957333 0 0 1-23.808-24.234666c0-3.114667 0.597333-6.08 1.664-8.832a13.525333 13.525333 0 0 0 13.269333 14.890666 13.525333 13.525333 0 0 0 13.312-13.738666 13.525333 13.525333 0 0 0-16.042666-13.44c3.456-1.984 7.424-3.114667 11.605333-3.114667zM262.229333 531.84c29.056 0 52.885333 22.613333 52.885334 50.090667 0 27.477333-23.829333 50.090667-52.885334 50.090666s-52.864-22.208-52.864-50.090666c0-27.456 23.808-50.090667 52.864-50.090667zM599.573333 69.76c75.370667 27.093333 133.930667 102.549333 150.762667 194.112 16.853333 79.189333 20.48 145.792 30.314667 206.997333l-4.864-1.28-7.424-1.536-8.021334-1.344-9.173333-1.173333-4.266667-0.448-8.704-0.704-3.584-0.213333-10.197333-0.426667-8.810667-0.128-8.917333 0.106667-8.704 0.341333-5.034667 0.32-9.386666 0.789333-10.026667 1.258667-7.082667 1.173333-4.821333 0.96-6.72 1.621334-4.608 1.344-5.568 2.026666-5.418667 2.133334c-42.986667 18.346667-75.605333 62.08-85.738666 114.432-0.96 4.586667-1.92 9.301333-2.773334 14.101333l-1.322666 7.253333-1.813334 11.306667h-111.914666l-0.64-4.394667-2.026667-15.189333-1.92-15.701333-3.712-29.44-1.92-13.333334-1.28-7.957333-2.112-11.52-3.818667-18.709333c-11.093333-49.642667-43.285333-90.88-85.12-108.074667l-4.885333-1.877333-6.485333-2.048-6.976-1.792-7.424-1.557334-8.021334-1.344-9.173333-1.194666-4.266667-0.426667-8.704-0.704-3.584-0.213333-10.197333-0.426667-8.810667-0.128-8.917333 0.106667-8.704 0.341333-5.034667 0.32-9.386666 0.789333-10.026667 1.258667-7.082667 1.173333-4.8 0.96-6.741333 1.621334-4.608 1.344-5.568 2.026666-1.365333 0.512c4.8-40.768 10.090667-84.629333 20.458666-133.333333 17.557333-90.837333 75.370667-166.272 150.762667-194.112 54.144-21.973333 183.68-21.973333 245.909333 0zM261.824 550.037333c-3.221333 0-6.442667 1.194667-9.28 2.005334a23.552 23.552 0 0 1-7.253333 1.621333c-6.869333 0-8.490667 7.68-9.685334 12.928a66.325333 66.325333 0 0 1-1.216 4.437333c-0.768 2.325333-2.645333 7.594667 22.272 23.253334l0.213334 0.128-0.256 4.096c-2.858667 2.154667-10.752 7.893333-18.261334 6.826666a14.933333 14.933333 0 0 1-9.322666-6.464l0.426666-2.816 0.917334-6.442666 0.426666-2.773334 0.384-1.6-7.168-1.792a161.216 161.216 0 0 0-2.474666 15.274667l-0.042667 0.512v1.429333l0.725333 1.066667c3.925333 6.464 9.301333 10.048 15.402667 10.773333 1.066667 0.362667 1.792 0.362667 2.858667 0.362667 9.770667 0 18.773333-6.528 21.397333-8.874667 2.944 2.346667 12.032 8.874667 21.610667 8.874667 1.066667 0 2.133333 0 2.517333-0.362667 5.525333-0.917333 10.005333-3.690667 13.653333-8.32l1.749334-2.453333 0.725333-1.066667v-1.429333c0-0.32-1.152-9.429333-2.133333-14.208l-0.384-1.578667-7.168 1.792c0.725333 2.517333 1.792 9.685333 2.133333 13.632-2.496 3.946667-5.717333 6.101333-9.301333 6.464-6.698667 0.938667-13.653333-3.477333-17.130667-5.973333l-1.152-0.853333-0.213333-4.138667c23.957333-15.36 23.381333-20.864 22.613333-23.04l-0.128-0.298667-0.426667-1.322666a114.56 114.56 0 0 1-0.789333-3.114667c-0.810667-5.248-2.816-12.928-9.685333-12.928-2.410667 0-4.842667-0.810667-7.253334-1.621333-2.837333-0.810667-6.058667-2.005333-9.301333-2.005334z m0.426667 7.68c2.005333 0 4.416 0.789333 6.826666 1.6 3.242667 0.810667 6.08 2.026667 9.706667 2.026667 1.216 0 2.410667 4.437333 2.816 6.869333 0.426667 2.005333 0.810667 3.221333 1.216 4.842667-1.621333 2.816-10.496 9.685333-20.586667 16.149333-9.28-6.058667-18.965333-13.333333-20.586666-16.149333l1.216-4.842667c0.426667-2.026667 1.621333-6.869333 2.837333-6.869333 3.626667 0 6.848-1.216 9.685333-2.026667 2.410667-0.810667 4.842667-1.621333 6.848-1.621333z m-90.026667-52.928c-17.344 0-31.061333 14.144-31.061333 31.509334 0 17.365333 14.122667 31.509333 31.061333 31.509333 17.365333 0 31.082667-14.549333 31.082667-31.509333 0-17.365333-13.717333-31.509333-31.082667-31.509334z m176.384 0c-17.365333 0-31.082667 14.144-31.082667 31.509334 0 17.365333 14.122667 31.509333 31.082667 31.509333 17.344 0 31.082667-14.549333 31.082667-31.509333 0-17.365333-13.738667-31.509333-31.082667-31.509334z m462.976 32.981334c-8.96-0.341333-17.92 2.794667-24.64 8.32l-2.389333 2.197333-4.053334 4.032 7.68 7.68 4.053334-4.053333c4.821333-4.842667 12.096-7.68 18.944-7.253334 6.357333 0 12.714667 3.093333 17.173333 7.637334l1.792 2.048 3.242667 4.437333 8.469333-6.464-3.221333-4.437333a36.053333 36.053333 0 0 0-27.050667-14.144z m-179.605333 0a36.053333 36.053333 0 0 0-24.746667 11.434666l-2.282667 2.709334-3.221333 4.437333 8.469333 6.464 3.221334-4.437333c4.437333-5.653333 11.712-9.28 18.986666-9.685334 6.208-0.362667 12.16 1.664 16.768 5.312l2.197334 1.941334 4.032 4.053333 7.68-7.68-4.053334-4.053333a37.418667 37.418667 0 0 0-27.050666-10.496z m229.333333-1.706667h62.101333v26.325333l-49.770666-0.213333a168.32 168.32 0 0 0-12.309334-26.133333z m-689.066667-24.405333c13.312 0 23.808 10.901333 23.808 24.234666 0 13.333333-10.901333 24.234667-23.829333 24.234667a23.957333 23.957333 0 0 1-23.808-24.234667c0-3.114667 0.597333-6.101333 1.664-8.832a13.525333 13.525333 0 0 0 13.269333 14.890667 13.525333 13.525333 0 0 0 13.333334-13.738667 13.525333 13.525333 0 0 0-16.064-13.44c3.477333-1.984 7.445333-3.114667 11.605333-3.114666z m176.362667 0c13.312 0 23.808 10.901333 23.808 24.234666 0 13.333333-10.88 24.234667-23.808 24.234667a23.957333 23.957333 0 0 1-23.808-24.234667c0-3.114667 0.576-6.101333 1.664-8.832a13.525333 13.525333 0 0 0 13.269333 14.890667 13.525333 13.525333 0 0 0 13.312-13.738667 13.525333 13.525333 0 0 0-16.042666-13.44c3.456-1.984 7.424-3.114667 11.605333-3.114666z m436.245333-41.792h85.76v26.346666l-40.661333-0.021333a129.749333 129.749333 0 0 0-30.293333-20.48l-5.546667-2.474667-5.461333-2.133333-3.797334-1.237333zM487.594667 280.746667c-60.010667 0-109.056 46.869333-109.056 104s49.045333 104.021333 109.056 104.021333 109.034667-46.890667 109.034666-104.021333c0-57.130667-49.024-104-109.034666-104zM170.624 459.946667a36.053333 36.053333 0 0 0-24.746667 11.434666l-2.304 2.709334-3.221333 4.437333 8.469333 6.464 3.242667-4.437333c4.437333-5.653333 11.690667-9.301333 18.965333-9.706667 6.229333-0.341333 12.16 1.706667 16.768 5.333333l2.197334 1.941334 4.053333 4.053333 7.658667-7.68-4.053334-4.053333a37.418667 37.418667 0 0 0-27.029333-10.496z m179.584 0c-8.96-0.362667-17.92 2.794667-24.618667 8.32l-2.410666 2.176-4.053334 4.053333 7.68 7.68 4.053334-4.053333c4.821333-4.842667 12.096-7.68 18.965333-7.253334 6.357333 0 12.714667 3.072 17.173333 7.637334l1.792 2.048 3.221334 4.437333 8.469333-6.464-3.221333-4.437333a36.053333 36.053333 0 0 0-27.050667-14.144z m137.386667-166.784c52.693333 0 95.872 41.024 95.872 90.837333s-43.178667 90.816-95.872 90.816c-52.693333 0-95.872-40.277333-95.872-90.816 0-49.813333 43.178667-90.837333 95.872-90.837333z m-0.725334 32.96c-5.866667 0-11.733333 2.197333-16.853333 3.669333-4.373333 1.472-8.768 2.922667-13.162667 2.922667-12.437333 0-15.36 13.930667-17.557333 23.466666-0.746667 2.901333-1.472 5.845333-2.197333 8.042667-1.408 4.202667-4.821333 13.802667 40.682666 42.346667l-0.362666 7.466666c-5.205333 3.904-19.498667 14.314667-33.152 12.373334-6.485333-1.301333-12.330667-5.205333-16.896-11.712 1.152-6.250667 2.282667-17.002667 3.413333-22.634667l0.490667-2.069333-13.013334-3.264c-1.28 4.714667-2.837333 15.36-3.754666 22.272l-0.405334 3.093333-0.32 2.773333-0.042666 0.469334v2.602666l1.28 1.962667c7.168 11.712 16.917333 18.218667 27.946666 19.498667 1.962667 0.661333 3.264 0.661333 5.205334 0.661333 17.706667 0 33.984-11.776 38.784-16.085333 5.290667 4.245333 21.802667 16.085333 39.189333 16.085333 1.962667 0 3.904 0 4.565333-0.64 10.389333-1.749333 18.730667-7.082667 25.472-16l2.453334-3.52 1.301333-1.962667v-2.752l-0.042667-0.341333-0.32-2.773333a342.016 342.016 0 0 0-3.52-22.528l-0.64-2.816-13.013333 3.264c1.28 4.544 3.242667 17.557333 3.904 24.704-4.565333 7.146667-10.410667 11.050667-16.896 11.712-12.586667 1.792-25.749333-6.933333-31.786667-11.349334l-1.365333-1.002666-0.362667-7.530667c44.032-28.245333 42.304-38.144 40.874667-41.941333l-0.149333-0.362667-0.725334-2.410667a207.722667 207.722667 0 0 1-1.472-5.653333c-1.450667-9.514667-5.12-23.445333-17.557333-23.445333-4.394667 0-8.789333-1.450667-13.162667-2.922667-5.12-1.472-10.986667-3.669333-16.853333-3.669333z m0.725334 13.930666c3.648 0 8.042667 1.450667 12.437333 2.922667 5.845333 1.472 10.986667 3.669333 17.557333 3.669333 2.197333 0 4.394667 8.042667 5.12 12.437334 0.746667 3.669333 1.493333 5.866667 2.197334 8.810666-2.922667 5.12-19.029333 17.578667-37.333334 29.290667-15.701333-10.24-32.042667-22.421333-36.522666-28.16l-0.789334-1.130667 2.197334-8.810666c0.725333-3.648 2.922667-12.437333 5.12-12.437334 6.592 0 12.437333-2.197333 17.578666-3.669333 4.373333-1.472 8.768-2.922667 12.437334-2.922667z m-163.2-95.957333c-31.488 0-56.362667 25.642667-56.362667 57.130667s25.6 57.130667 56.341333 57.130666c31.488 0 56.362667-26.368 56.362667-57.130666 0-31.488-24.874667-57.130667-56.362667-57.130667z m319.808 0c-31.466667 0-56.341333 25.642667-56.341334 57.130667s25.6 57.130667 56.341334 57.130666c31.488 0 56.362667-26.368 56.362666-57.130666 0-31.488-24.874667-57.130667-56.362666-57.130667z m-319.829334 12.458667c24.170667 0 43.2 19.776 43.2 43.946666s-19.776 43.946667-43.2 43.946667c-24.149333 0-43.178667-19.776-43.178666-43.946667 0-5.653333 1.066667-11.050667 3.029333-16a21.205333 21.205333 0 0 0-0.085333 2.069334c0 13.76 10.794667 24.917333 24.149333 24.917333 13.333333 0 24.149333-11.157333 24.149333-24.917333 0-13.738667-10.816-24.896-24.149333-24.896-1.664 0-3.285333 0.170667-4.842667 0.490666 6.229333-3.562667 13.397333-5.610667 20.928-5.610666z m319.829334 0c24.170667 0 43.178667 19.776 43.178666 43.946666s-19.754667 43.946667-43.178666 43.946667c-24.149333 0-43.178667-19.776-43.178667-43.946667 0-5.653333 1.066667-11.050667 3.029333-16a21.205333 21.205333 0 0 0-0.085333 2.069334c0 13.76 10.794667 24.917333 24.149333 24.917333 13.333333 0 24.149333-11.157333 24.149334-24.917333 0-13.738667-10.816-24.896-24.149334-24.896-1.664 0-3.285333 0.170667-4.842666 0.490666 6.229333-3.562667 13.397333-5.610667 20.928-5.610666zM325.546667 162.752l-4.053334 0.042667a65.386667 65.386667 0 0 0-46.229333 22.186666l-2.816 3.434667-5.866667 8.064 15.36 11.733333 5.866667-8.064c8.064-10.24 21.226667-16.853333 34.410667-17.578666 11.84-0.661333 23.104 3.413333 31.637333 10.666666l2.752 2.517334 7.317333 7.317333 13.909334-13.909333-7.317334-7.338667c-10.538667-10.538667-25.770667-17.386667-40.853333-18.816l-4.117333-0.256z m275.541333 16.298667l-2.965333 2.773333-7.317334 7.338667 13.909334 13.909333 7.317333-7.317333a46.250667 46.250667 0 0 1 34.389333-13.184c11.989333 0 23.957333 6.037333 32.085334 14.848l2.325333 2.730666 5.845333 8.042667 15.36-11.712-5.845333-8.064a65.408 65.408 0 0 0-49.024-25.621333 66.922667 66.922667 0 0 0-46.08 16.256z" fill="#892ca0"></path>
</svg>