<svg class="icon" viewBox="0 0 1024 1024" version="1.1" xmlns="http://www.w3.org/2000/svg">
    <path d="M512 96L151.68 304v416L512 928l135.136-78.016v-156l-135.136 78.016-225.12-130.016v-260l225.12-129.984 225.184 130.016v520l135.136-78.016V304L511.968 96z"
          fill="#DC244C"></path>
    <path d="M376.864 434.016v155.968l135.072 78.016 135.136-78.016v-156l-135.136-77.984-135.04 78.016z" fill="#DC244C"></path>
    <path d="M647.04 694.016v156L511.936 928v-156l135.104-78.016zM872.256 304v520l-135.136 78.016v-520L872.256 304z"
          fill="#9E0D38"></path>
    <path d="M872.288 304l-135.136 78.016L512 252l-225.12 130.016L151.68 304 512 96l360.32 208z" fill="#FF516B"></path>
    <path d="M512 772V928L151.68 720v-416l135.136 78.016v259.968l225.12 130.016z" fill="#DC244C"></path>
    <path d="M647.04 434.016L511.968 512l-135.04-78.016 135.04-77.984 135.136 78.016z" fill="#FF516B"></path>
    <path d="M511.936 512v156l-135.04-78.016v-156L511.904 512z" fill="#DC244C"></path>
    <path d="M647.04 434.016v155.968l-135.104 78.016V512l135.104-78.016z" fill="#9E0D38"></path>
</svg>