<svg xmlns="http://www.w3.org/2000/svg" viewBox="0 0 62 62" fill="black">
    <g transform="translate(-12.5, 0)">
        <path
                opacity="0.88"
                d="M43.603 47.3024L42.8424 50.2598"
                stroke="#cffc75"
                stroke-width="0.12"
        />
        <path
                opacity="0.88"
                d="M50.2426 48.9349L47.0571 54.1865"
                stroke="#cffc75"
                stroke-width="0.12"
        />
        <path
                opacity="0.88"
                d="M48.4123 46.0291L46.1604 48.4387"
                stroke="#cffc75"
                stroke-width="0.12"
        />
        <path
                opacity="0.88"
                d="M49.5946 46.3236L50.1416 48.2918"
                stroke="#cffc75"
                stroke-width="0.12"
        />
        <path
                opacity="0.88"
                d="M44.4974 46.4905L48.0078 45.5148"
                stroke="#cffc75"
                stroke-width="0.12"
        />
        <path
                opacity="0.88"
                d="M45.1371 43.207L47.8916 44.4017"
                stroke="#cffc75"
                stroke-width="0.12"
        />
        <path
                opacity="0.88"
                d="M47.3699 41.0277L48.6234 43.6299"
                stroke="#cffc75"
                stroke-width="0.12"
        />
        <path
                opacity="0.88"
                d="M53.2703 38.3396L50.1807 43.7138"
                stroke="#cffc75"
                stroke-width="0.12"
        />
        <path
                opacity="0.88"
                d="M31.5689 29.623L26.8391 31.4598"
                stroke="#cffc75"
                stroke-width="0.12"
        />
        <path
                opacity="0.88"
                d="M31.3966 24.6028L24.1138 22.5809"
                stroke="#cffc75"
                stroke-width="0.12"
        />
        <path
                opacity="0.88"
                d="M31.7331 23.8495L28.7751 20.5811"
                stroke="#cffc75"
                stroke-width="0.12"
        />
        <path
                opacity="0.88"
                d="M38.0214 21.5027L35.0986 20.2406"
                stroke="#cffc75"
                stroke-width="0.12"
        />
        <path
                opacity="0.88"
                d="M38.1014 22.2158L36.8546 23.1007"
                stroke="#cffc75"
                stroke-width="0.12"
        />
        <path
                opacity="0.88"
                d="M34.5136 14.8781L31.8279 13.6532"
                stroke="#cffc75"
                stroke-width="0.12"
        />
        <path
                opacity="0.88"
                d="M34.8861 15.994L28.8997 19.6114"
                stroke="#cffc75"
                stroke-width="0.12"
        />
        <path
                opacity="0.88"
                d="M40.2461 13.8615L37.3024 14.8523"
                stroke="#cffc75"
                stroke-width="0.12"
        />
        <path
                opacity="0.88"
                d="M36.4438 9.78455L35.9943 13.7688"
                stroke="#cffc75"
                stroke-width="0.12"
        />
        <path
                opacity="0.88"
                d="M44.4922 7.63464L40.6819 11.0259"
                stroke="#cffc75"
                stroke-width="0.12"
        />
        <path
                opacity="0.88"
                d="M41.9669 18.2827L39.0969 21.335"
                stroke="#cffc75"
                stroke-width="0.12"
        />
        <path
                opacity="0.88"
                d="M42.2641 16.9401L41.0476 14.2576"
                stroke="#cffc75"
                stroke-width="0.12"
        />
        <path
                opacity="0.88"
                d="M32.5141 30.4579L31.6516 32.9394"
                stroke="#cffc75"
                stroke-width="0.12"
        />
        <path
                opacity="0.88"
                d="M27.1032 28.3297L26.1371 30.9158"
                stroke="#cffc75"
                stroke-width="0.12"
        />
        <path
                opacity="0.88"
                d="M25.0219 31.4736L22.5583 30.1371"
                stroke="#cffc75"
                stroke-width="0.12"
        />
        <path
                opacity="0.88"
                d="M34.5257 26.8197L33.739 28.0662"
                stroke="#cffc75"
                stroke-width="0.12"
        />
        <path
                opacity="0.88"
                d="M25.4598 32.775L24.5801 34.4898"
                stroke="#cffc75"
                stroke-width="0.12"
        />
        <path
                opacity="0.88"
                d="M33.7321 34.5785L29.0168 37.3758"
                stroke="#cffc75"
                stroke-width="0.12"
        />
        <path
                opacity="0.88"
                d="M26.3021 41.781L22.9802 38.2297"
                stroke="#cffc75"
                stroke-width="0.12"
        />
        <path
                opacity="0.88"
                d="M37.3603 41.3998L33.5315 42.9101"
                stroke="#cffc75"
                stroke-width="0.12"
        />
        <path
                opacity="0.88"
                d="M33.5653 39.5944L32.6013 42.2781"
                stroke="#cffc75"
                stroke-width="0.12"
        />
        <path
                opacity="0.88"
                d="M36.0041 44.4484L33.6545 43.9476"
                stroke="#cffc75"
                stroke-width="0.12"
        />
        <path
                opacity="0.88"
                d="M30.8962 43.395L27.3459 42.5179"
                stroke="#cffc75"
                stroke-width="0.12"
        />
        <path
                opacity="0.88"
                d="M31.1257 44.5128L29.0139 45.7098"
                stroke="#cffc75"
                stroke-width="0.12"
        />
        <path
                opacity="0.88"
                d="M32.8774 44.994L34.1939 51.5245"
                stroke="#cffc75"
                stroke-width="0.12"
        />
        <path
                opacity="0.88"
                d="M55.2589 37.6326L59.4724 40.2985"
                stroke="#cffc75"
                stroke-width="0.12"
        />
        <path
                opacity="0.88"
                d="M55.9778 32.7476L57.4236 33.0713"
                stroke="#cffc75"
                stroke-width="0.12"
        />
        <path
                opacity="0.88"
                d="M57.5098 29.2468L62.4693 28.9882"
                stroke="#cffc75"
                stroke-width="0.12"
        />
        <path
                opacity="0.88"
                d="M58.2107 24.3954L57.0662 28.6669"
                stroke="#cffc75"
                stroke-width="0.12"
        />
        <path
                opacity="0.88"
                d="M59.2114 24.1801L62.8244 28.2574"
                stroke="#cffc75"
                stroke-width="0.12"
        />
        <path
                opacity="0.88"
                d="M59.6222 23.3925L64.1585 24.3246"
                stroke="#cffc75"
                stroke-width="0.12"
        />
        <path
                opacity="0.88"
                d="M65.3274 24.7726L68.4412 31.9922"
                stroke="#cffc75"
                stroke-width="0.12"
        />
        <path
                opacity="0.88"
                d="M59.384 22.767L65.5257 20.14"
                stroke="#cffc75"
                stroke-width="0.12"
        />
        <path
                opacity="0.88"
                d="M58.7111 22.3213L58.9632 20.0077"
                stroke="#cffc75"
                stroke-width="0.12"
        />
        <path
                opacity="0.88"
                d="M60.7978 18.9824L60.4597 17.6857"
                stroke="#cffc75"
                stroke-width="0.12"
        />
        <path
                opacity="0.88"
                d="M63.6481 17.2247L61.3186 19.373"
                stroke="#cffc75"
                stroke-width="0.12"
        />
        <path
                opacity="0.88"
                d="M52.8196 21.6002L57.6637 22.8559"
                stroke="#cffc75"
                stroke-width="0.12"
        />
        <path
                opacity="0.88"
                d="M54.9147 25.4277L57.6663 23.8988"
                stroke="#cffc75"
                stroke-width="0.12"
        />
        <path
                opacity="0.88"
                d="M54.9777 17.3009L58.0264 22.4784"
                stroke="#cffc75"
                stroke-width="0.12"
        />
        <path
                opacity="0.88"
                d="M53.9577 17.3181L52.2745 20.1788"
                stroke="#cffc75"
                stroke-width="0.12"
        />
        <path
                opacity="0.88"
                d="M57.683 11.5106L55.0505 15.5"
                stroke="#cffc75"
                stroke-width="0.12"
        />
        <path
                opacity="0.88"
                d="M57.4285 11.229L54.8816 11.589"
                stroke="#cffc75"
                stroke-width="0.12"
        />
        <path
                opacity="0.88"
                d="M54.2926 11.2608L53.7629 9.21033"
                stroke="#cffc75"
                stroke-width="0.12"
        />
        <path
                opacity="0.88"
                d="M58.6389 33.4818L60.7664 34.4306"
                stroke="#cffc75"
                stroke-width="0.12"
        />
        <path
                opacity="0.88"
                d="M57.4921 36.1155L60.854 35.1608"
                stroke="#cffc75"
                stroke-width="0.12"
        />
        <path
                opacity="0.88"
                d="M60.3926 39.9833L61.8774 36.1217"
                stroke="#cffc75"
                stroke-width="0.12"
        />
        <path
                opacity="0.88"
                d="M60.8132 40.7117L65.3275 41.8704"
                stroke="#cffc75"
                stroke-width="0.12"
        />
        <path
                opacity="0.88"
                d="M53.436 42.0878L50.6124 44.2601"
                stroke="#cffc75"
                stroke-width="0.12"
        />
        <path
                opacity="0.88"
                d="M57.5717 44.3959L50.7668 44.9566"
                stroke="#cffc75"
                stroke-width="0.12"
        />
        <path
                opacity="0.88"
                d="M58.5702 49.798L55.566 48.4613"
                stroke="#cffc75"
                stroke-width="0.12"
        />
        <path
                opacity="0.88"
                d="M58.5556 24.483C59.1576 24.483 59.6456 23.9904 59.6456 23.3828C59.6456 22.7752 59.1576 22.2826 58.5556 22.2826C57.9536 22.2826 57.4656 22.7752 57.4656 23.3828C57.4656 23.9904 57.9536 24.483 58.5556 24.483Z"
                fill="#cffc75"
        />
        <path
                opacity="0.88"
                d="M51.9057 22.2382C52.5077 22.2382 52.9957 21.7456 52.9957 21.138C52.9957 20.5304 52.5077 20.0378 51.9057 20.0378C51.3037 20.0378 50.8157 20.5304 50.8157 21.138C50.8157 21.7456 51.3037 22.2382 51.9057 22.2382Z"
                fill="#cffc75"
        />
        <path
                opacity="0.88"
                d="M32.4435 25.6503C33.0455 25.6503 33.5336 25.1578 33.5336 24.5501C33.5336 23.9425 33.0455 23.45 32.4435 23.45C31.8415 23.45 31.3535 23.9425 31.3535 24.5501C31.3535 25.1578 31.8415 25.6503 32.4435 25.6503Z"
                fill="#cffc75"
        />
        <path
                opacity="0.88"
                d="M25.8666 32.9896C26.4686 32.9896 26.9566 32.497 26.9566 31.8894C26.9566 31.2818 26.4686 30.7892 25.8666 30.7892C25.2646 30.7892 24.7766 31.2818 24.7766 31.8894C24.7766 32.497 25.2646 32.9896 25.8666 32.9896Z"
                fill="#cffc75"
        />
        <path
                opacity="0.88"
                d="M63.5385 30.063C64.1405 30.063 64.6285 29.5705 64.6285 28.9629C64.6285 28.3552 64.1405 27.8627 63.5385 27.8627C62.9365 27.8627 62.4485 28.3552 62.4485 28.9629C62.4485 29.5705 62.9365 30.063 63.5385 30.063Z"
                fill="#cffc75"
        />
        <path
                opacity="0.88"
                d="M54.4571 17.4955C55.0591 17.4955 55.5471 17.003 55.5471 16.3954C55.5471 15.7877 55.0591 15.2952 54.4571 15.2952C53.8551 15.2952 53.3671 15.7877 53.3671 16.3954C53.3671 17.003 53.8551 17.4955 54.4571 17.4955Z"
                fill="#cffc75"
        />
        <path
                opacity="0.88"
                d="M42.7839 18.7729C43.3859 18.7729 43.8739 18.2803 43.8739 17.6727C43.8739 17.0651 43.3859 16.5725 42.7839 16.5725C42.1819 16.5725 41.6938 17.0651 41.6938 17.6727C41.6938 18.2803 42.1819 18.7729 42.7839 18.7729Z"
                fill="#cffc75"
        />
        <path
                opacity="0.88"
                d="M28.1148 47.3698C28.7168 47.3698 29.2048 46.8772 29.2048 46.2696C29.2048 45.662 28.7168 45.1694 28.1148 45.1694C27.5128 45.1694 27.0248 45.662 27.0248 46.2696C27.0248 46.8772 27.5128 47.3698 28.1148 47.3698Z"
                fill="#cffc75"
        />
        <path
                opacity="0.88"
                d="M33.9272 39.8006C34.5292 39.8006 35.0172 39.308 35.0172 38.7004C35.0172 38.0928 34.5292 37.6002 33.9272 37.6002C33.3252 37.6002 32.8372 38.0928 32.8372 38.7004C32.8372 39.308 33.3252 39.8006 33.9272 39.8006Z"
                fill="#cffc75"
        />
        <path
                opacity="0.88"
                d="M30.8942 14.2708C31.5196 14.2708 32.0266 13.7591 32.0266 13.1278C32.0266 12.4965 31.5196 11.9847 30.8942 11.9847C30.2687 11.9847 29.7617 12.4965 29.7617 13.1278C29.7617 13.7591 30.2687 14.2708 30.8942 14.2708Z"
                fill="#cffc75"
        />
        <path
                opacity="0.88"
                d="M44.8765 12.92C45.5019 12.92 46.0089 12.4082 46.0089 11.7769C46.0089 11.1457 45.5019 10.6339 44.8765 10.6339C44.251 10.6339 43.744 11.1457 43.744 11.7769C43.744 12.4082 44.251 12.92 44.8765 12.92Z"
                fill="#cffc75"
        />
        <path
                opacity="0.88"
                d="M35.9585 16.6336C36.7643 16.6336 37.4175 15.9743 37.4175 15.161C37.4175 14.3477 36.7643 13.6884 35.9585 13.6884C35.1527 13.6884 34.4995 14.3477 34.4995 15.161C34.4995 15.9743 35.1527 16.6336 35.9585 16.6336Z"
                fill="#cffc75"
        />
        <path
                opacity="0.88"
                d="M59.6861 18.0218C60.4919 18.0218 61.1451 17.3625 61.1451 16.5492C61.1451 15.7359 60.4919 15.0765 59.6861 15.0765C58.8803 15.0765 58.2271 15.7359 58.2271 16.5492C58.2271 17.3625 58.8803 18.0218 59.6861 18.0218Z"
                fill="#cffc75"
        />
        <path
                opacity="0.88"
                d="M62.1985 36.1544C63.0043 36.1544 63.6575 35.495 63.6575 34.6817C63.6575 33.8684 63.0043 33.2091 62.1985 33.2091C61.3927 33.2091 60.7395 33.8684 60.7395 34.6817C60.7395 35.495 61.3927 36.1544 62.1985 36.1544Z"
                fill="#cffc75"
        />
        <path
                opacity="0.88"
                d="M58.0552 33.8727C58.4277 33.8727 58.7297 33.5679 58.7297 33.1918C58.7297 32.8158 58.4277 32.511 58.0552 32.511C57.6826 32.511 57.3806 32.8158 57.3806 33.1918C57.3806 33.5679 57.6826 33.8727 58.0552 33.8727Z"
                fill="#cffc75"
        />
        <path
                opacity="0.88"
                d="M40.8141 14.2896C41.1866 14.2896 41.4887 13.9847 41.4887 13.6087C41.4887 13.2327 41.1866 12.9279 40.8141 12.9279C40.4415 12.9279 40.1395 13.2327 40.1395 13.6087C40.1395 13.9847 40.4415 14.2896 40.8141 14.2896Z"
                fill="#cffc75"
        />
        <path
                opacity="0.88"
                d="M34.5829 20.6929C34.9554 20.6929 35.2574 20.3881 35.2574 20.012C35.2574 19.636 34.9554 19.3312 34.5829 19.3312C34.2103 19.3312 33.9083 19.636 33.9083 20.012C33.9083 20.3881 34.2103 20.6929 34.5829 20.6929Z"
                fill="#cffc75"
        />
        <path
                opacity="0.88"
                d="M23.541 23.0604C23.9136 23.0604 24.2156 22.7556 24.2156 22.3796C24.2156 22.0036 23.9136 21.6987 23.541 21.6987C23.1685 21.6987 22.8665 22.0036 22.8665 22.3796C22.8665 22.7556 23.1685 23.0604 23.541 23.0604Z"
                fill="#cffc75"
        />
        <path
                opacity="0.88"
                d="M36.5411 9.89089C36.9137 9.89089 37.2157 9.58606 37.2157 9.21003C37.2157 8.834 36.9137 8.52917 36.5411 8.52917C36.1686 8.52917 35.8666 8.834 35.8666 9.21003C35.8666 9.58606 36.1686 9.89089 36.5411 9.89089Z"
                fill="#cffc75"
        />
        <path
                opacity="0.88"
                d="M40.1963 12.1159C40.5688 12.1159 40.8709 11.811 40.8709 11.435C40.8709 11.059 40.5688 10.7542 40.1963 10.7542C39.8237 10.7542 39.5217 11.059 39.5217 11.435C39.5217 11.811 39.8237 12.1159 40.1963 12.1159Z"
                fill="#cffc75"
        />
        <path
                opacity="0.88"
                d="M49.2928 46.3634C50.0986 46.3634 50.7518 45.704 50.7518 44.8907C50.7518 44.0774 50.0986 43.4181 49.2928 43.4181C48.487 43.4181 47.8337 44.0774 47.8337 44.8907C47.8337 45.704 48.487 46.3634 49.2928 46.3634Z"
                fill="#cffc75"
        />
        <path
                opacity="0.88"
                d="M32.9171 30.5555C33.7229 30.5555 34.3762 29.8962 34.3762 29.0829C34.3762 28.2695 33.7229 27.6102 32.9171 27.6102C32.1114 27.6102 31.4581 28.2695 31.4581 29.0829C31.4581 29.8962 32.1114 30.5555 32.9171 30.5555Z"
                fill="#cffc75"
        />
        <path
                opacity="0.88"
                d="M31.5637 34.3655C31.9731 34.3655 32.305 34.0305 32.305 33.6173C32.305 33.204 31.9731 32.869 31.5637 32.869C31.1543 32.869 30.8224 33.204 30.8224 33.6173C30.8224 34.0305 31.1543 34.3655 31.5637 34.3655Z"
                fill="#cffc75"
        />
        <path
                opacity="0.88"
                d="M34.2953 35.087C34.7047 35.087 35.0366 34.752 35.0366 34.3388C35.0366 33.9256 34.7047 33.5906 34.2953 33.5906C33.8859 33.5906 33.554 33.9256 33.554 34.3388C33.554 34.752 33.8859 35.087 34.2953 35.087Z"
                fill="#cffc75"
        />
        <path
                opacity="0.88"
                d="M28.4081 38.5308C28.8175 38.5308 29.1494 38.1958 29.1494 37.7825C29.1494 37.3693 28.8175 37.0343 28.4081 37.0343C27.9986 37.0343 27.6667 37.3693 27.6667 37.7825C27.6667 38.1958 27.9986 38.5308 28.4081 38.5308Z"
                fill="#cffc75"
        />
        <path
                opacity="0.88"
                d="M38.5492 22.5531C38.9586 22.5531 39.2905 22.2181 39.2905 21.8049C39.2905 21.3916 38.9586 21.0566 38.5492 21.0566C38.1398 21.0566 37.8079 21.3916 37.8079 21.8049C37.8079 22.2181 38.1398 22.5531 38.5492 22.5531Z"
                fill="#cffc75"
        />
        <path
                opacity="0.88"
                d="M22.0443 30.4183C22.4537 30.4183 22.7856 30.0833 22.7856 29.6701C22.7856 29.2569 22.4537 28.9219 22.0443 28.9219C21.6349 28.9219 21.303 29.2569 21.303 29.6701C21.303 30.0833 21.6349 30.4183 22.0443 30.4183Z"
                fill="#cffc75"
        />
        <path
                opacity="0.88"
                d="M27.3329 28.3223C27.7423 28.3223 28.0742 27.9873 28.0742 27.574C28.0742 27.1608 27.7423 26.8258 27.3329 26.8258C26.9235 26.8258 26.5916 27.1608 26.5916 27.574C26.5916 27.9873 26.9235 28.3223 27.3329 28.3223Z"
                fill="#cffc75"
        />
        <path
                opacity="0.88"
                d="M60.1097 41.3534C60.5191 41.3534 60.851 41.0184 60.851 40.6052C60.851 40.1919 60.5191 39.8569 60.1097 39.8569C59.7003 39.8569 59.3684 40.1919 59.3684 40.6052C59.3684 41.0184 59.7003 41.3534 60.1097 41.3534Z"
                fill="#cffc75"
        />
        <path
                opacity="0.88"
                d="M54.067 42.3989C54.4764 42.3989 54.8083 42.0639 54.8083 41.6507C54.8083 41.2375 54.4764 40.9025 54.067 40.9025C53.6576 40.9025 53.3257 41.2375 53.3257 41.6507C53.3257 42.0639 53.6576 42.3989 54.067 42.3989Z"
                fill="#cffc75"
        />
        <path
                opacity="0.88"
                d="M58.0216 44.8109C58.2737 44.8109 58.4781 44.6047 58.4781 44.3502C58.4781 44.0958 58.2737 43.8895 58.0216 43.8895C57.7695 43.8895 57.5652 44.0958 57.5652 44.3502C57.5652 44.6047 57.7695 44.8109 58.0216 44.8109Z"
                fill="#cffc75"
        />
        <path
                opacity="0.88"
                d="M58.971 50.4586C59.2231 50.4586 59.4274 50.2524 59.4274 49.9979C59.4274 49.7435 59.2231 49.5372 58.971 49.5372C58.7189 49.5372 58.5145 49.7435 58.5145 49.9979C58.5145 50.2524 58.7189 50.4586 58.971 50.4586Z"
                fill="#cffc75"
        />
        <path
                opacity="0.88"
                d="M46.8958 54.9762C47.1479 54.9762 47.3522 54.7699 47.3522 54.5155C47.3522 54.2611 47.1479 54.0548 46.8958 54.0548C46.6437 54.0548 46.4393 54.2611 46.4393 54.5155C46.4393 54.7699 46.6437 54.9762 46.8958 54.9762Z"
                fill="#cffc75"
        />
        <path
                opacity="0.88"
                d="M34.2088 52.3325C34.4608 52.3325 34.6652 52.1263 34.6652 51.8718C34.6652 51.6174 34.4608 51.4111 34.2088 51.4111C33.9567 51.4111 33.7523 51.6174 33.7523 51.8718C33.7523 52.1263 33.9567 52.3325 34.2088 52.3325Z"
                fill="#cffc75"
        />
        <path
                opacity="0.88"
                d="M50.2912 49.1265C50.5432 49.1265 50.7476 48.9202 50.7476 48.6658C50.7476 48.4113 50.5432 48.2051 50.2912 48.2051C50.0391 48.2051 49.8347 48.4113 49.8347 48.6658C49.8347 48.9202 50.0391 49.1265 50.2912 49.1265Z"
                fill="#cffc75"
        />
        <path
                opacity="0.88"
                d="M45.8422 49.1861C46.0943 49.1861 46.2986 48.9798 46.2986 48.7254C46.2986 48.4709 46.0943 48.2646 45.8422 48.2646C45.5901 48.2646 45.3857 48.4709 45.3857 48.7254C45.3857 48.9798 45.5901 49.1861 45.8422 49.1861Z"
                fill="#cffc75"
        />
        <path
                opacity="0.88"
                d="M44.6529 43.4789C44.9049 43.4789 45.1093 43.2726 45.1093 43.0182C45.1093 42.7638 44.9049 42.5575 44.6529 42.5575C44.4008 42.5575 44.1964 42.7638 44.1964 43.0182C44.1964 43.2726 44.4008 43.4789 44.6529 43.4789Z"
                fill="#cffc75"
        />
        <path
                opacity="0.88"
                d="M47.2228 41.0468C47.4749 41.0468 47.6792 40.8405 47.6792 40.5861C47.6792 40.3316 47.4749 40.1254 47.2228 40.1254C46.9707 40.1254 46.7664 40.3316 46.7664 40.5861C46.7664 40.8405 46.9707 41.0468 47.2228 41.0468Z"
                fill="#cffc75"
        />
        <path
                opacity="0.88"
                d="M57.0475 36.6693C57.2996 36.6693 57.5039 36.4631 57.5039 36.2086C57.5039 35.9542 57.2996 35.7479 57.0475 35.7479C56.7954 35.7479 56.5911 35.9542 56.5911 36.2086C56.5911 36.4631 56.7954 36.6693 57.0475 36.6693Z"
                fill="#cffc75"
        />
        <path
                opacity="0.88"
                d="M65.7711 42.4417C66.0232 42.4417 66.2276 42.2354 66.2276 41.981C66.2276 41.7265 66.0232 41.5203 65.7711 41.5203C65.5191 41.5203 65.3147 41.7265 65.3147 41.981C65.3147 42.2354 65.5191 42.4417 65.7711 42.4417Z"
                fill="#cffc75"
        />
        <path
                opacity="0.88"
                d="M55.5797 33.0344C55.8318 33.0344 56.0362 32.8282 56.0362 32.5737C56.0362 32.3193 55.8318 32.113 55.5797 32.113C55.3276 32.113 55.1233 32.3193 55.1233 32.5737C55.1233 32.8282 55.3276 33.0344 55.5797 33.0344Z"
                fill="#cffc75"
        />
        <path
                opacity="0.88"
                d="M54.6908 26.147C54.9429 26.147 55.1473 25.9407 55.1473 25.6863C55.1473 25.4319 54.9429 25.2256 54.6908 25.2256C54.4387 25.2256 54.2344 25.4319 54.2344 25.6863C54.2344 25.9407 54.4387 26.147 54.6908 26.147Z"
                fill="#cffc75"
        />
        <path
                opacity="0.88"
                d="M65.8397 20.3943C66.0918 20.3943 66.2962 20.188 66.2962 19.9336C66.2962 19.6792 66.0918 19.4729 65.8397 19.4729C65.5877 19.4729 65.3833 19.6792 65.3833 19.9336C65.3833 20.188 65.5877 20.3943 65.8397 20.3943Z"
                fill="#cffc75"
        />
        <path
                opacity="0.88"
                d="M68.4926 32.9007C68.7447 32.9007 68.949 32.6944 68.949 32.44C68.949 32.1855 68.7447 31.9792 68.4926 31.9792C68.2405 31.9792 68.0361 32.1855 68.0361 32.44C68.0361 32.6944 68.2405 32.9007 68.4926 32.9007Z"
                fill="#cffc75"
        />
        <path
                opacity="0.88"
                d="M58.9878 20.0217C59.2399 20.0217 59.4443 19.8155 59.4443 19.561C59.4443 19.3066 59.2399 19.1003 58.9878 19.1003C58.7357 19.1003 58.5314 19.3066 58.5314 19.561C58.5314 19.8155 58.7357 20.0217 58.9878 20.0217Z"
                fill="#cffc75"
        />
        <path
                opacity="0.88"
                d="M60.8996 19.887C61.1516 19.887 61.356 19.6807 61.356 19.4263C61.356 19.1718 61.1516 18.9656 60.8996 18.9656C60.6475 18.9656 60.4431 19.1718 60.4431 19.4263C60.4431 19.6807 60.6475 19.887 60.8996 19.887Z"
                fill="#cffc75"
        />
        <path
                opacity="0.88"
                d="M63.8927 17.3307C64.1448 17.3307 64.3492 17.1244 64.3492 16.87C64.3492 16.6156 64.1448 16.4093 63.8927 16.4093C63.6406 16.4093 63.4363 16.6156 63.4363 16.87C63.4363 17.1244 63.6406 17.3307 63.8927 17.3307Z"
                fill="#cffc75"
        />
        <path
                opacity="0.88"
                d="M36.57 23.8197C36.8221 23.8197 37.0264 23.6135 37.0264 23.359C37.0264 23.1046 36.8221 22.8983 36.57 22.8983C36.3179 22.8983 36.1135 23.1046 36.1135 23.359C36.1135 23.6135 36.3179 23.8197 36.57 23.8197Z"
                fill="#cffc75"
        />
        <path
                opacity="0.88"
                d="M34.6872 27.0925C34.9392 27.0925 35.1436 26.8863 35.1436 26.6318C35.1436 26.3774 34.9392 26.1711 34.6872 26.1711C34.4351 26.1711 34.2307 26.3774 34.2307 26.6318C34.2307 26.8863 34.4351 27.0925 34.6872 27.0925Z"
                fill="#cffc75"
        />
        <path
                opacity="0.88"
                d="M24.2948 35.333C24.5469 35.333 24.7513 35.1268 24.7513 34.8723C24.7513 34.6179 24.5469 34.4116 24.2948 34.4116C24.0427 34.4116 23.8384 34.6179 23.8384 34.8723C23.8384 35.1268 24.0427 35.333 24.2948 35.333Z"
                fill="#cffc75"
        />
        <path
                opacity="0.88"
                d="M22.7562 38.3228C23.0083 38.3228 23.2127 38.1165 23.2127 37.8621C23.2127 37.6076 23.0083 37.4014 22.7562 37.4014C22.5042 37.4014 22.2998 37.6076 22.2998 37.8621C22.2998 38.1165 22.5042 38.3228 22.7562 38.3228Z"
                fill="#cffc75"
        />
        <path
                opacity="0.88"
                d="M44.8168 7.79896C45.0689 7.79896 45.2732 7.5927 45.2732 7.33826C45.2732 7.08383 45.0689 6.87756 44.8168 6.87756C44.5647 6.87756 44.3604 7.08383 44.3604 7.33826C44.3604 7.5927 44.5647 7.79896 44.8168 7.79896Z"
                fill="#cffc75"
        />
        <path
                opacity="0.88"
                d="M54.4354 12.1343C54.6875 12.1343 54.8919 11.928 54.8919 11.6736C54.8919 11.4192 54.6875 11.2129 54.4354 11.2129C54.1834 11.2129 53.979 11.4192 53.979 11.6736C53.979 11.928 54.1834 12.1343 54.4354 12.1343Z"
                fill="#cffc75"
        />
        <path
                opacity="0.88"
                d="M36.3981 45.0143C36.6502 45.0143 36.8545 44.808 36.8545 44.5536C36.8545 44.2992 36.6502 44.0929 36.3981 44.0929C36.146 44.0929 35.9417 44.2992 35.9417 44.5536C35.9417 44.808 36.146 45.0143 36.3981 45.0143Z"
                fill="#cffc75"
        />
        <path
                opacity="0.88"
                d="M37.7804 41.746C38.0325 41.746 38.2369 41.5397 38.2369 41.2853C38.2369 41.0308 38.0325 40.8246 37.7804 40.8246C37.5283 40.8246 37.324 41.0308 37.324 41.2853C37.324 41.5397 37.5283 41.746 37.7804 41.746Z"
                fill="#cffc75"
        />
        <path
                opacity="0.88"
                d="M32.3018 45.1264C33.1076 45.1264 33.7608 44.4671 33.7608 43.6538C33.7608 42.8405 33.1076 42.1812 32.3018 42.1812C31.496 42.1812 30.8428 42.8405 30.8428 43.6538C30.8428 44.4671 31.496 45.1264 32.3018 45.1264Z"
                fill="#cffc75"
        />
        <path
                opacity="0.88"
                d="M53.9854 38.5069C54.7912 38.5069 55.4444 37.8476 55.4444 37.0343C55.4444 36.221 54.7912 35.5616 53.9854 35.5616C53.1796 35.5616 52.5264 36.221 52.5264 37.0343C52.5264 37.8476 53.1796 38.5069 53.9854 38.5069Z"
                fill="#cffc75"
        />
        <path
                opacity="0.88"
                d="M64.8474 25.2439C65.2568 25.2439 65.5887 24.9089 65.5887 24.4957C65.5887 24.0824 65.2568 23.7474 64.8474 23.7474C64.438 23.7474 64.1061 24.0824 64.1061 24.4957C64.1061 24.9089 64.438 25.2439 64.8474 25.2439Z"
                fill="#cffc75"
        />
        <path
                opacity="0.88"
                d="M28.4293 20.6902C28.8387 20.6902 29.1706 20.3552 29.1706 19.942C29.1706 19.5287 28.8387 19.1937 28.4293 19.1937C28.0199 19.1937 27.688 19.5287 27.688 19.942C27.688 20.3552 28.0199 20.6902 28.4293 20.6902Z"
                fill="#cffc75"
        />
        <path
                opacity="0.88"
                d="M56.8633 29.9008C57.2358 29.9008 57.5378 29.5959 57.5378 29.2199C57.5378 28.8439 57.2358 28.5391 56.8633 28.5391C56.4907 28.5391 56.1887 28.8439 56.1887 29.2199C56.1887 29.5959 56.4907 29.9008 56.8633 29.9008Z"
                fill="#cffc75"
        />
        <path
                opacity="0.88"
                d="M26.7421 42.8786C27.1146 42.8786 27.4166 42.5737 27.4166 42.1977C27.4166 41.8217 27.1146 41.5168 26.7421 41.5168C26.3695 41.5168 26.0675 41.8217 26.0675 42.1977C26.0675 42.5737 26.3695 42.8786 26.7421 42.8786Z"
                fill="#cffc75"
        />
        <path
                opacity="0.88"
                d="M42.7124 51.6185C43.085 51.6185 43.387 51.3137 43.387 50.9377C43.387 50.5617 43.085 50.2568 42.7124 50.2568C42.3399 50.2568 42.0378 50.5617 42.0378 50.9377C42.0378 51.3137 42.3399 51.6185 42.7124 51.6185Z"
                fill="#cffc75"
        />
        <path
                opacity="0.88"
                d="M54.9733 48.8497C55.3458 48.8497 55.6478 48.5449 55.6478 48.1689C55.6478 47.7929 55.3458 47.488 54.9733 47.488C54.6007 47.488 54.2987 47.7929 54.2987 48.1689C54.2987 48.5449 54.6007 48.8497 54.9733 48.8497Z"
                fill="#cffc75"
        />
        <path
                opacity="0.88"
                d="M43.8782 47.3709C44.2507 47.3709 44.5527 47.066 44.5527 46.69C44.5527 46.314 44.2507 46.0092 43.8782 46.0092C43.5056 46.0092 43.2036 46.314 43.2036 46.69C43.2036 47.066 43.5056 47.3709 43.8782 47.3709Z"
                fill="#cffc75"
        />
        <path
                opacity="0.88"
                d="M53.663 9.28773C53.9151 9.28773 54.1194 9.08147 54.1194 8.82703C54.1194 8.5726 53.9151 8.36633 53.663 8.36633C53.4109 8.36633 53.2065 8.5726 53.2065 8.82703C53.2065 9.08147 53.4109 9.28773 53.663 9.28773Z"
                fill="#cffc75"
        />
        <path
                opacity="0.88"
                d="M57.8397 11.5736C58.0918 11.5736 58.2962 11.3674 58.2962 11.1129C58.2962 10.8585 58.0918 10.6522 57.8397 10.6522C57.5877 10.6522 57.3833 10.8585 57.3833 11.1129C57.3833 11.3674 57.5877 11.5736 57.8397 11.5736Z"
                fill="#cffc75"
        />
        <path
                d="M50.631 15.9474L37.1837 32.7787L43.3568 32.8229L38.6504 46.2455L52.4258 28.7916L46.1292 28.8147L50.631 15.9474Z"
                fill="#cffc75"
        />
    </g>
</svg>