<svg xmlns="http://www.w3.org/2000/svg" viewBox="0 0 1200 760" role="img" aria-labelledby="title desc">
  <title id="title">FlyEnv desktop dashboard placeholder</title>
  <desc id="desc">A simple placeholder dashboard showing runtimes, services, local sites, and project context.</desc>
  <rect width="1200" height="760" rx="28" fill="#0f172a"/>
  <rect x="24" y="24" width="1152" height="712" rx="20" fill="#111827" stroke="#334155" stroke-width="2"/>
  <rect x="24" y="24" width="1152" height="64" rx="20" fill="#1e293b"/>
  <circle cx="58" cy="56" r="8" fill="#fb7185"/><circle cx="84" cy="56" r="8" fill="#fbbf24"/><circle cx="110" cy="56" r="8" fill="#34d399"/>
  <text x="150" y="64" fill="#f8fafc" font-family="Arial, sans-serif" font-size="24" font-weight="700">FlyEnv</text>
  <text x="1010" y="64" fill="#94a3b8" font-family="Arial, sans-serif" font-size="16">PLACEHOLDER UI</text>
  <rect x="48" y="112" width="240" height="596" rx="14" fill="#0b1220"/>
  <text x="76" y="158" fill="#818cf8" font-family="Arial, sans-serif" font-size="16" font-weight="700">WORKSPACE</text>
  <text x="76" y="204" fill="#e2e8f0" font-family="Arial, sans-serif" font-size="20">Overview</text>
  <text x="76" y="248" fill="#94a3b8" font-family="Arial, sans-serif" font-size="20">Runtimes</text>
  <text x="76" y="292" fill="#94a3b8" font-family="Arial, sans-serif" font-size="20">Services</text>
  <text x="76" y="336" fill="#94a3b8" font-family="Arial, sans-serif" font-size="20">Local Sites</text>
  <text x="76" y="380" fill="#94a3b8" font-family="Arial, sans-serif" font-size="20">AI + MCP</text>
  <rect x="316" y="112" width="836" height="176" rx="14" fill="#172033"/>
  <text x="348" y="154" fill="#94a3b8" font-family="Arial, sans-serif" font-size="16">PROJECT CONTEXT</text>
  <text x="348" y="202" fill="#f8fafc" font-family="Arial, sans-serif" font-size="30" font-weight="700">Laravel workspace</text>
  <rect x="348" y="226" width="112" height="30" rx="15" fill="#312e81"/><text x="372" y="247" fill="#c7d2fe" font-family="Arial, sans-serif" font-size="14">PHP 8.4</text>
  <rect x="474" y="226" width="112" height="30" rx="15" fill="#164e63"/><text x="496" y="247" fill="#a5f3fc" font-family="Arial, sans-serif" font-size="14">MySQL</text>
  <rect x="600" y="226" width="112" height="30" rx="15" fill="#14532d"/><text x="627" y="247" fill="#bbf7d0" font-family="Arial, sans-serif" font-size="14">Redis</text>
  <rect x="316" y="312" width="402" height="396" rx="14" fill="#172033"/>
  <text x="348" y="354" fill="#94a3b8" font-family="Arial, sans-serif" font-size="16">SERVICES</text>
  <text x="348" y="404" fill="#f8fafc" font-family="Arial, sans-serif" font-size="22">Nginx</text><circle cx="656" cy="397" r="8" fill="#34d399"/>
  <text x="348" y="454" fill="#f8fafc" font-family="Arial, sans-serif" font-size="22">PHP-FPM</text><circle cx="656" cy="447" r="8" fill="#34d399"/>
  <text x="348" y="504" fill="#f8fafc" font-family="Arial, sans-serif" font-size="22">MySQL</text><circle cx="656" cy="497" r="8" fill="#34d399"/>
  <text x="348" y="554" fill="#f8fafc" font-family="Arial, sans-serif" font-size="22">Redis</text><circle cx="656" cy="547" r="8" fill="#fbbf24"/>
  <rect x="742" y="312" width="410" height="396" rx="14" fill="#172033"/>
  <text x="774" y="354" fill="#94a3b8" font-family="Arial, sans-serif" font-size="16">LOCAL SITES</text>
  <rect x="774" y="390" width="346" height="74" rx="10" fill="#1e293b"/><text x="798" y="424" fill="#f8fafc" font-family="Arial, sans-serif" font-size="20">laravel.test</text><text x="798" y="448" fill="#818cf8" font-family="Arial, sans-serif" font-size="14">HTTPS · PHP 8.4</text>
  <rect x="774" y="486" width="346" height="74" rx="10" fill="#1e293b"/><text x="798" y="520" fill="#f8fafc" font-family="Arial, sans-serif" font-size="20">api.test</text><text x="798" y="544" fill="#818cf8" font-family="Arial, sans-serif" font-size="14">HTTPS · Node.js 22</text>
  <text x="774" y="630" fill="#64748b" font-family="Arial, sans-serif" font-size="14">Replace with a real FlyEnv screenshot later</text>
</svg>
